<?xml version="1.0" standalone="no"?>
<!DOCTYPE svg PUBLIC "-//W3C//DTD SVG 20010904//EN"
 "http://www.w3.org/TR/2001/REC-SVG-20010904/DTD/svg10.dtd">
<svg version="1.0" xmlns="http://www.w3.org/2000/svg"
 width="131.000000pt" height="131.000000pt" viewBox="0 0 131.000000 131.000000"
 preserveAspectRatio="xMidYMid meet">
<metadata>
Created by potrace 1.14, written by Peter Selinger 2001-2017
</metadata>
<g transform="translate(0.000000,131.000000) scale(0.100000,-0.100000)"
fill="#000000" stroke="none">
<path d="M710 1126 c-149 -42 -270 -149 -321 -283 l-24 -63 -67 0 -66 0 0 158
c0 86 -1 165 -1 175 -1 16 -11 17 -114 15 l-112 -3 -3 -462 c-1 -255 1 -464 5
-464 33 -5 206 -3 214 2 7 4 11 68 12 175 l2 169 64 0 64 0 14 -40 c67 -200
251 -328 463 -324 134 3 237 47 330 140 303 305 85 823 -345 818 -38 0 -90 -6
-115 -13z m246 -252 c156 -96 154 -338 -4 -431 -40 -24 -58 -28 -122 -28 -102
0 -171 41 -215 125 -20 38 -31 132 -21 183 8 42 50 107 90 138 74 58 190 64
272 13z"/>
</g>
</svg>
